<mxfile host="app.diagrams.net" modified="2022-10-09T13:01:48.167Z" agent="5.0 (Windows NT 10.0; Win64; x64) AppleWebKit/537.36 (KHTML, like Gecko) Chrome/105.0.0.0 Safari/537.36" etag="s5j7V6CAy12DZ5TgL8QR" version="20.4.0" type="github">
  <diagram id="kgpKYQtTHZ0yAKxKKP6v" name="Page-1">
    <mxGraphModel dx="1422" dy="794" grid="1" gridSize="10" guides="1" tooltips="1" connect="1" arrows="1" fold="1" page="1" pageScale="1" pageWidth="850" pageHeight="1100" math="0" shadow="0">
      <root>
        <mxCell id="0" />
        <mxCell id="1" parent="0" />
        <mxCell id="3nuBFxr9cyL0pnOWT2aG-1" value="PeerA" style="shape=umlLifeline;perimeter=lifelinePerimeter;container=1;collapsible=0;recursiveResize=0;rounded=0;shadow=0;strokeWidth=1;" parent="1" vertex="1">
          <mxGeometry x="130" y="80" width="110" height="710" as="geometry" />
        </mxCell>
        <mxCell id="3nuBFxr9cyL0pnOWT2aG-2" value="" style="points=[];perimeter=orthogonalPerimeter;rounded=0;shadow=0;strokeWidth=1;" parent="3nuBFxr9cyL0pnOWT2aG-1" vertex="1">
          <mxGeometry x="50" y="70" width="10" height="640" as="geometry" />
        </mxCell>
        <mxCell id="3nuBFxr9cyL0pnOWT2aG-3" value="connect" style="verticalAlign=bottom;startArrow=oval;endArrow=block;startSize=8;shadow=0;strokeWidth=1;" parent="3nuBFxr9cyL0pnOWT2aG-1" target="3nuBFxr9cyL0pnOWT2aG-2" edge="1">
          <mxGeometry relative="1" as="geometry">
            <mxPoint x="-15" y="70" as="sourcePoint" />
          </mxGeometry>
        </mxCell>
        <mxCell id="BNVg0xJeac6T9L0AGFn--11" value="" style="rounded=0;whiteSpace=wrap;html=1;" vertex="1" parent="3nuBFxr9cyL0pnOWT2aG-1">
          <mxGeometry x="45" y="242" width="20" height="78" as="geometry" />
        </mxCell>
        <mxCell id="BNVg0xJeac6T9L0AGFn--31" value="" style="shape=ext;double=1;rounded=0;whiteSpace=wrap;html=1;fontSize=11;" vertex="1" parent="3nuBFxr9cyL0pnOWT2aG-1">
          <mxGeometry x="45" y="510" width="20" height="80" as="geometry" />
        </mxCell>
        <mxCell id="3nuBFxr9cyL0pnOWT2aG-5" value="PeerB" style="shape=umlLifeline;perimeter=lifelinePerimeter;container=1;collapsible=0;recursiveResize=0;rounded=0;shadow=0;strokeWidth=1;" parent="1" vertex="1">
          <mxGeometry x="300" y="80" width="100" height="710" as="geometry" />
        </mxCell>
        <mxCell id="3nuBFxr9cyL0pnOWT2aG-6" value="" style="points=[];perimeter=orthogonalPerimeter;rounded=0;shadow=0;strokeWidth=1;" parent="3nuBFxr9cyL0pnOWT2aG-5" vertex="1">
          <mxGeometry x="45" y="80" width="10" height="630" as="geometry" />
        </mxCell>
        <mxCell id="BNVg0xJeac6T9L0AGFn--3" value="connect" style="verticalAlign=bottom;startArrow=oval;endArrow=block;startSize=8;shadow=0;strokeWidth=1;" edge="1" parent="3nuBFxr9cyL0pnOWT2aG-5">
          <mxGeometry relative="1" as="geometry">
            <mxPoint x="-15" y="95" as="sourcePoint" />
            <mxPoint x="45" y="95" as="targetPoint" />
          </mxGeometry>
        </mxCell>
        <mxCell id="BNVg0xJeac6T9L0AGFn--14" value="" style="rounded=0;whiteSpace=wrap;html=1;" vertex="1" parent="3nuBFxr9cyL0pnOWT2aG-5">
          <mxGeometry x="40" y="244" width="20" height="76" as="geometry" />
        </mxCell>
        <mxCell id="BNVg0xJeac6T9L0AGFn--22" value="play action" style="verticalAlign=bottom;startArrow=oval;endArrow=block;startSize=8;shadow=0;strokeWidth=1;" edge="1" parent="3nuBFxr9cyL0pnOWT2aG-5" target="3nuBFxr9cyL0pnOWT2aG-6">
          <mxGeometry relative="1" as="geometry">
            <mxPoint x="110" y="390" as="sourcePoint" />
            <mxPoint x="120" y="381" as="targetPoint" />
          </mxGeometry>
        </mxCell>
        <mxCell id="BNVg0xJeac6T9L0AGFn--32" value="" style="shape=ext;double=1;rounded=0;whiteSpace=wrap;html=1;fontSize=11;" vertex="1" parent="3nuBFxr9cyL0pnOWT2aG-5">
          <mxGeometry x="40" y="510" width="20" height="80" as="geometry" />
        </mxCell>
        <mxCell id="3nuBFxr9cyL0pnOWT2aG-8" value="register connection" style="verticalAlign=bottom;endArrow=block;entryX=0.47;entryY=0.257;shadow=0;strokeWidth=1;entryDx=0;entryDy=0;entryPerimeter=0;" parent="1" source="3nuBFxr9cyL0pnOWT2aG-2" target="BNVg0xJeac6T9L0AGFn--1" edge="1">
          <mxGeometry relative="1" as="geometry">
            <mxPoint x="275" y="160" as="sourcePoint" />
          </mxGeometry>
        </mxCell>
        <mxCell id="3nuBFxr9cyL0pnOWT2aG-9" value="get connected peers" style="verticalAlign=bottom;endArrow=block;shadow=0;strokeWidth=1;exitX=1.1;exitY=0.188;exitDx=0;exitDy=0;exitPerimeter=0;" parent="1" source="3nuBFxr9cyL0pnOWT2aG-6" target="BNVg0xJeac6T9L0AGFn--1" edge="1">
          <mxGeometry relative="1" as="geometry">
            <mxPoint x="380" y="190" as="sourcePoint" />
          </mxGeometry>
        </mxCell>
        <mxCell id="BNVg0xJeac6T9L0AGFn--1" value="Blockchain" style="shape=umlLifeline;perimeter=lifelinePerimeter;container=1;collapsible=0;recursiveResize=0;rounded=0;shadow=0;strokeWidth=1;" vertex="1" parent="1">
          <mxGeometry x="480" y="80" width="130" height="300" as="geometry" />
        </mxCell>
        <mxCell id="BNVg0xJeac6T9L0AGFn--2" value="" style="points=[];perimeter=orthogonalPerimeter;rounded=0;shadow=0;strokeWidth=1;" vertex="1" parent="BNVg0xJeac6T9L0AGFn--1">
          <mxGeometry x="60" y="80" width="10" height="30" as="geometry" />
        </mxCell>
        <mxCell id="BNVg0xJeac6T9L0AGFn--4" value="register connection" style="verticalAlign=bottom;endArrow=block;shadow=0;strokeWidth=1;" edge="1" parent="1" source="3nuBFxr9cyL0pnOWT2aG-5" target="BNVg0xJeac6T9L0AGFn--2">
          <mxGeometry relative="1" as="geometry">
            <mxPoint x="185" y="167.10000000000002" as="sourcePoint" />
            <mxPoint x="537" y="167.10000000000002" as="targetPoint" />
          </mxGeometry>
        </mxCell>
        <mxCell id="BNVg0xJeac6T9L0AGFn--5" value="Store connection&#xa;details" style="text;strokeColor=none;fillColor=none;spacingLeft=4;spacingRight=4;overflow=hidden;rotatable=0;points=[[0,0.5],[1,0.5]];portConstraint=eastwest;fontSize=12;verticalAlign=middle;" vertex="1" parent="1">
          <mxGeometry x="600" y="160" width="100" height="30" as="geometry" />
        </mxCell>
        <mxCell id="3nuBFxr9cyL0pnOWT2aG-10" value="challenge" style="verticalAlign=bottom;endArrow=open;endSize=8;shadow=0;strokeWidth=1;" parent="1" edge="1">
          <mxGeometry relative="1" as="geometry">
            <mxPoint x="180" y="240" as="targetPoint" />
            <mxPoint x="340" y="240" as="sourcePoint" />
          </mxGeometry>
        </mxCell>
        <mxCell id="BNVg0xJeac6T9L0AGFn--8" value="challenge accepted" style="verticalAlign=bottom;endArrow=open;endSize=8;shadow=0;strokeWidth=1;" edge="1" parent="1" source="3nuBFxr9cyL0pnOWT2aG-1">
          <mxGeometry relative="1" as="geometry">
            <mxPoint x="350" y="270" as="targetPoint" />
            <mxPoint x="335" y="265" as="sourcePoint" />
          </mxGeometry>
        </mxCell>
        <mxCell id="BNVg0xJeac6T9L0AGFn--9" value="register match" style="verticalAlign=bottom;endArrow=block;shadow=0;strokeWidth=1;exitX=1.1;exitY=0.288;exitDx=0;exitDy=0;exitPerimeter=0;" edge="1" parent="1">
          <mxGeometry relative="1" as="geometry">
            <mxPoint x="356" y="287.08000000000004" as="sourcePoint" />
            <mxPoint x="544.5" y="287.08000000000004" as="targetPoint" />
          </mxGeometry>
        </mxCell>
        <mxCell id="BNVg0xJeac6T9L0AGFn--10" value="Stablish a p2p connection between players" style="text;html=1;strokeColor=none;fillColor=none;align=center;verticalAlign=middle;whiteSpace=wrap;rounded=0;" vertex="1" parent="1">
          <mxGeometry x="50" y="230" width="110" height="50" as="geometry" />
        </mxCell>
        <mxCell id="BNVg0xJeac6T9L0AGFn--12" value="start match" style="text;html=1;strokeColor=none;fillColor=none;align=center;verticalAlign=middle;whiteSpace=wrap;rounded=0;fontStyle=1" vertex="1" parent="1">
          <mxGeometry x="210" y="280" width="110" height="30" as="geometry" />
        </mxCell>
        <mxCell id="BNVg0xJeac6T9L0AGFn--13" value="" style="endArrow=classic;startArrow=classic;html=1;rounded=0;entryX=0.48;entryY=0.51;entryDx=0;entryDy=0;entryPerimeter=0;" edge="1" parent="1">
          <mxGeometry width="50" height="50" relative="1" as="geometry">
            <mxPoint x="184.5" y="304.0999999999999" as="sourcePoint" />
            <mxPoint x="348" y="304.0999999999999" as="targetPoint" />
          </mxGeometry>
        </mxCell>
        <mxCell id="BNVg0xJeac6T9L0AGFn--15" value="start new round&lt;br&gt;&lt;span style=&quot;font-weight: normal;&quot;&gt;&lt;font style=&quot;font-size: 11px;&quot;&gt;create secret key&lt;/font&gt;&lt;/span&gt;" style="text;html=1;strokeColor=none;fillColor=none;align=center;verticalAlign=middle;whiteSpace=wrap;rounded=0;fontStyle=1" vertex="1" parent="1">
          <mxGeometry x="210" y="323" width="110" height="30" as="geometry" />
        </mxCell>
        <mxCell id="BNVg0xJeac6T9L0AGFn--16" value="" style="endArrow=classic;startArrow=classic;html=1;rounded=0;entryX=0.48;entryY=0.51;entryDx=0;entryDy=0;entryPerimeter=0;" edge="1" parent="1">
          <mxGeometry width="50" height="50" relative="1" as="geometry">
            <mxPoint x="187.5" y="383.0999999999999" as="sourcePoint" />
            <mxPoint x="351" y="383.0999999999999" as="targetPoint" />
          </mxGeometry>
        </mxCell>
        <mxCell id="BNVg0xJeac6T9L0AGFn--17" value="keyword&lt;br&gt;agreement" style="text;html=1;strokeColor=none;fillColor=none;align=center;verticalAlign=middle;whiteSpace=wrap;rounded=0;fontStyle=1" vertex="1" parent="1">
          <mxGeometry x="208" y="368" width="110" height="30" as="geometry" />
        </mxCell>
        <mxCell id="BNVg0xJeac6T9L0AGFn--18" value="" style="endArrow=classic;html=1;rounded=0;fontSize=11;exitX=0.9;exitY=0.791;exitDx=0;exitDy=0;exitPerimeter=0;entryX=-0.2;entryY=0.806;entryDx=0;entryDy=0;entryPerimeter=0;" edge="1" parent="1">
          <mxGeometry width="50" height="50" relative="1" as="geometry">
            <mxPoint x="189" y="439.8499999999999" as="sourcePoint" />
            <mxPoint x="343" y="438.98" as="targetPoint" />
          </mxGeometry>
        </mxCell>
        <mxCell id="BNVg0xJeac6T9L0AGFn--20" value="share hashed action" style="edgeLabel;html=1;align=center;verticalAlign=middle;resizable=0;points=[];fontSize=11;" vertex="1" connectable="0" parent="BNVg0xJeac6T9L0AGFn--18">
          <mxGeometry x="-0.3378" y="-1" relative="1" as="geometry">
            <mxPoint x="2" y="-10" as="offset" />
          </mxGeometry>
        </mxCell>
        <mxCell id="BNVg0xJeac6T9L0AGFn--19" value="play action" style="verticalAlign=bottom;startArrow=oval;endArrow=block;startSize=8;shadow=0;strokeWidth=1;" edge="1" parent="1">
          <mxGeometry relative="1" as="geometry">
            <mxPoint x="120" y="420" as="sourcePoint" />
            <mxPoint x="185" y="420" as="targetPoint" />
          </mxGeometry>
        </mxCell>
        <mxCell id="BNVg0xJeac6T9L0AGFn--23" value="" style="endArrow=classic;html=1;rounded=0;fontSize=11;" edge="1" parent="1" source="3nuBFxr9cyL0pnOWT2aG-6" target="3nuBFxr9cyL0pnOWT2aG-1">
          <mxGeometry width="50" height="50" relative="1" as="geometry">
            <mxPoint x="340" y="530" as="sourcePoint" />
            <mxPoint x="347" y="481.98" as="targetPoint" />
          </mxGeometry>
        </mxCell>
        <mxCell id="BNVg0xJeac6T9L0AGFn--24" value="share hashed action" style="edgeLabel;html=1;align=center;verticalAlign=middle;resizable=0;points=[];fontSize=11;" vertex="1" connectable="0" parent="BNVg0xJeac6T9L0AGFn--23">
          <mxGeometry x="-0.3378" y="-1" relative="1" as="geometry">
            <mxPoint x="-12" y="-14" as="offset" />
          </mxGeometry>
        </mxCell>
        <mxCell id="BNVg0xJeac6T9L0AGFn--25" value="&lt;h1&gt;Face down phase&lt;/h1&gt;&lt;div&gt;peers exchange their actions as hashed values&lt;/div&gt;&lt;div&gt;this data can be stored in blockchain for future validation.&lt;/div&gt;" style="text;html=1;strokeColor=none;fillColor=none;spacing=5;spacingTop=-20;whiteSpace=wrap;overflow=hidden;rounded=0;fontSize=11;" vertex="1" parent="1">
          <mxGeometry x="430" y="416" width="240" height="90" as="geometry" />
        </mxCell>
        <mxCell id="BNVg0xJeac6T9L0AGFn--26" value="" style="shape=curlyBracket;whiteSpace=wrap;html=1;rounded=1;flipH=1;fontSize=11;" vertex="1" parent="1">
          <mxGeometry x="410" y="400" width="20" height="120" as="geometry" />
        </mxCell>
        <mxCell id="BNVg0xJeac6T9L0AGFn--27" value="" style="endArrow=classic;html=1;rounded=0;fontSize=11;exitX=0.9;exitY=0.791;exitDx=0;exitDy=0;exitPerimeter=0;entryX=-0.2;entryY=0.806;entryDx=0;entryDy=0;entryPerimeter=0;" edge="1" parent="1">
          <mxGeometry width="50" height="50" relative="1" as="geometry">
            <mxPoint x="192" y="551.8499999999999" as="sourcePoint" />
            <mxPoint x="346" y="550.98" as="targetPoint" />
          </mxGeometry>
        </mxCell>
        <mxCell id="BNVg0xJeac6T9L0AGFn--28" value="share unhashed action" style="edgeLabel;html=1;align=center;verticalAlign=middle;resizable=0;points=[];fontSize=11;" vertex="1" connectable="0" parent="BNVg0xJeac6T9L0AGFn--27">
          <mxGeometry x="-0.3378" y="-1" relative="1" as="geometry">
            <mxPoint x="17" y="-10" as="offset" />
          </mxGeometry>
        </mxCell>
        <mxCell id="BNVg0xJeac6T9L0AGFn--29" value="" style="endArrow=classic;html=1;rounded=0;fontSize=11;" edge="1" parent="1" target="3nuBFxr9cyL0pnOWT2aG-2">
          <mxGeometry width="50" height="50" relative="1" as="geometry">
            <mxPoint x="340" y="581" as="sourcePoint" />
            <mxPoint x="110" y="590" as="targetPoint" />
          </mxGeometry>
        </mxCell>
        <mxCell id="BNVg0xJeac6T9L0AGFn--30" value="share unhashed action" style="edgeLabel;html=1;align=center;verticalAlign=middle;resizable=0;points=[];fontSize=11;" vertex="1" connectable="0" parent="BNVg0xJeac6T9L0AGFn--29">
          <mxGeometry x="-0.3378" y="-1" relative="1" as="geometry">
            <mxPoint x="17" y="-10" as="offset" />
          </mxGeometry>
        </mxCell>
        <mxCell id="BNVg0xJeac6T9L0AGFn--33" value="Action Validation&lt;span style=&quot;font-size: 11px; font-weight: 400;&quot;&gt;&lt;br&gt;&lt;/span&gt;&lt;font style=&quot;font-weight: normal; font-size: 11px;&quot;&gt;custom game logic could be executed next&lt;/font&gt;" style="text;html=1;strokeColor=none;fillColor=none;align=center;verticalAlign=middle;whiteSpace=wrap;rounded=0;fontStyle=1" vertex="1" parent="1">
          <mxGeometry x="210" y="615" width="110" height="30" as="geometry" />
        </mxCell>
        <mxCell id="BNVg0xJeac6T9L0AGFn--34" value="&lt;h1&gt;Reveal phase&lt;/h1&gt;&lt;div&gt;peers exchange their actions and private keys to allow peer action validation.&lt;/div&gt;&lt;div&gt;Round information can be stored in blockchain for future validation.&lt;/div&gt;" style="text;html=1;strokeColor=none;fillColor=none;spacing=5;spacingTop=-20;whiteSpace=wrap;overflow=hidden;rounded=0;fontSize=11;" vertex="1" parent="1">
          <mxGeometry x="430" y="566" width="240" height="114" as="geometry" />
        </mxCell>
        <mxCell id="BNVg0xJeac6T9L0AGFn--35" value="" style="shape=curlyBracket;whiteSpace=wrap;html=1;rounded=1;flipH=1;fontSize=11;" vertex="1" parent="1">
          <mxGeometry x="410" y="550" width="20" height="120" as="geometry" />
        </mxCell>
        <mxCell id="BNVg0xJeac6T9L0AGFn--36" value="" style="shape=curlyBracket;whiteSpace=wrap;html=1;rounded=1;fontSize=11;" vertex="1" parent="1">
          <mxGeometry x="410" y="400" width="20" height="120" as="geometry" />
        </mxCell>
        <mxCell id="BNVg0xJeac6T9L0AGFn--37" value="" style="shape=curlyBracket;whiteSpace=wrap;html=1;rounded=1;fontSize=11;" vertex="1" parent="1">
          <mxGeometry x="90" y="322" width="20" height="348" as="geometry" />
        </mxCell>
        <mxCell id="BNVg0xJeac6T9L0AGFn--38" value="Arena protocol" style="text;strokeColor=none;fillColor=none;html=1;fontSize=24;fontStyle=1;verticalAlign=middle;align=center;rotation=-90;" vertex="1" parent="1">
          <mxGeometry x="10" y="466" width="100" height="40" as="geometry" />
        </mxCell>
      </root>
    </mxGraphModel>
  </diagram>
</mxfile>
